<?xml version="1.0" standalone="no"?>
<!DOCTYPE svg PUBLIC "-//W3C//DTD SVG 20010904//EN"
 "http://www.w3.org/TR/2001/REC-SVG-20010904/DTD/svg10.dtd">
<svg version="1.0" xmlns="http://www.w3.org/2000/svg"
 width="700.000000pt" height="700.000000pt" viewBox="0 0 700.000000 700.000000"
 preserveAspectRatio="xMidYMid meet">
<metadata>
Created by potrace 1.14, written by Peter Selinger 2001-2017
</metadata>
<g transform="translate(0.000000,700.000000) scale(0.100000,-0.100000)"
fill="#000000" stroke="none">
<path d="M1300 3500 l0 -2750 2200 0 2200 0 0 298 c0 163 0 1152 0 2197 0
1045 0 2149 0 2453 l0 552 -2200 0 -2200 0 0 -2750z m3300 550 l0 -1100 -550
0 -550 0 0 -550 0 -550 -550 0 -550 0 0 123 c0 137 0 2966 0 3095 l0 82 1100
0 1100 0 0 -1100z"/>
</g>
</svg>
