<?xml version="1.0" encoding="UTF-8" standalone="no"?>
<!-- Created with Inkscape (http://www.inkscape.org/) -->

<svg width="34.466423mm" height="34.466423mm" viewBox="0 0 34.466423 34.466423" version="1.1" id="svg1474" xmlns="http://www.w3.org/2000/svg" xmlns:svg="http://www.w3.org/2000/svg">
  <defs id="defs1471" />
  <g id="layer1" transform="translate(-32.476527,-131.26679)">
    <g id="g2323" transform="translate(140.1626,47.507412)">
      <path id="rect1722" style="fill:#0846e1;fill-opacity:1;fill-rule:evenodd;stroke-width:0.227981;-inkscape-stroke:none;stop-color:#000000" d="M -104.66042 83.759378 C -106.33676 83.759378 -107.68607 85.108688 -107.68607 86.785033 L -107.68607 115.19984 C -107.68607 116.87618 -106.33676 118.22601 -104.66042 118.22601 L -76.245615 118.22601 C -74.56927 118.22601 -73.219443 116.87618 -73.219443 115.19984 L -73.219443 86.785033 C -73.219443 85.108688 -74.56927 83.759378 -76.245615 83.759378 L -104.66042 83.759378 z M -97.333733 92.391409 L -83.571783 92.391409 L -83.571783 109.59346 L -97.333733 109.59346 L -97.333733 92.391409 z M -93.893116 95.832026 L -93.893116 106.15336 L -90.453016 106.15336 L -90.453016 102.71274 L -87.012399 102.71274 L -87.012399 95.832026 L -93.893116 95.832026 z " />
    </g>
  </g>
</svg>
