<?xml version="1.0" encoding="UTF-8" standalone="no"?>
<svg width="5.5562501mm" height="7.40833mm" viewBox="0 0 5.5562501 7.40833" version="1.1" id="svg6837" xmlns="http://www.w3.org/2000/svg" xmlns:svg="http://www.w3.org/2000/svg">
  <defs>
      <path d="M 1.85208,2.77813 V 1.85209 H 3.70416 V 2.77813 Z M 4.6302,5.55625 V 0.92605 H 0.92604 v 4.6302 H 1.85208 V 3.70417 H 3.70416 V 5.55625 Z M 0,7.40833 V 0 h 5.55625 v 7.40833 z" id="letter_a" style="font-size:7.40833px;line-height:1.25;font-family:'Pixel Bit Advanced';-inkscape-font-specification:'Pixel Bit Advanced';letter-spacing:0px;word-spacing:0px;fill:#ff9c1e;stroke-width:0.264583" />
      <path d="m 1.852078,4.630209 v -0.92605 h 1.852084 v 0.92605 z m 0,-1.85209 v -0.92604 h 1.852084 v 0.92604 z m 1.852084,2.77813 v -0.92604 h 0.92604 v -0.92605 h -0.92604 v -0.92604 h 0.92604 V 1.852079 H 3.704162 V 0.926041 H 0.926038 V 5.556249 Z M -2e-6,7.408329 V 10e-7 h 5.555974 l 2.8e-4,7.408038 z" id="letter_b" style="font-size:7.40833px;line-height:1.25;font-family:'Pixel Bit Advanced';-inkscape-font-specification:'Pixel Bit Advanced';letter-spacing:0px;word-spacing:0px;fill:#1e6bff;stroke-width:0.264583" />
      <path d="M 4.6302,5.55624 V 4.6302 H 1.85208 V 1.85208 H 4.6302 V 0.92604 H 0.92604 v 4.6302 z M 0,7.40833 V 0 h 5.55625 v 7.40833 z" id="letter_c" style="font-size:7.40833px;line-height:1.25;font-family:'Pixel Bit Advanced';-inkscape-font-specification:'Pixel Bit Advanced';letter-spacing:0px;word-spacing:0px;fill:#ff1e7b;stroke-width:0.264583" />
      <path d="M 1.85208,4.63021 V 1.85208 H 3.70416 V 4.63021 Z M 3.70416,5.55625 V 4.63021 H 4.6302 V 1.85208 H 3.70416 V 0.92604 H 0.92604 V 5.55625 Z M 0,7.40833 V 0 h 5.55625 v 7.40833 z" id="letter_d" style="font-size:7.40833px;line-height:1.25;font-family:'Pixel Bit Advanced';-inkscape-font-specification:'Pixel Bit Advanced';letter-spacing:0px;word-spacing:0px;fill:#79ff1e;stroke-width:0.264583" />
      <path d="M 4.6302,5.55625 V 4.63021 H 1.85208 V 3.70417 H 3.70416 V 2.77813 H 1.85208 V 1.85208 H 4.6302 V 0.92604 H 0.92604 V 5.55625 Z M 0,7.40833 V 0 h 5.55625 v 7.40833 z" id="letter_e" style="font-size:7.40833px;line-height:1.25;font-family:'Pixel Bit Advanced';-inkscape-font-specification:'Pixel Bit Advanced';letter-spacing:0px;word-spacing:0px;fill:#1effe9;stroke-width:0.264583" />
  </defs>
</svg>
