<?xml version="1.0" encoding="UTF-8" standalone="no"?>
<svg width="5.5562501mm" height="7.40833mm" viewBox="0 0 5.5562501 7.40833" version="1.1" xmlns="http://www.w3.org/2000/svg" xmlns:svg="http://www.w3.org/2000/svg">
  <defs>
    <path id="num_7" style="fill:#666666" d="M 0,0 V 7.40833 H 5.556249 V 0 Z M 0.926041,0.92604 H 4.630207 V 5.55625 H 3.704167 V 3.70417 H 2.778124 V 2.77812 H 3.704167 V 1.85208 H 0.926041 Z" />
    <path id="num_4" style="fill:#666666" d="M 0,0 V 7.40833 H 5.556249 V 0 Z M 0.926041,0.92604 H 1.852082 V 3.70416 H 2.778124 V 2.77812 h 0.926043 v 0.92604 h 0.92604 V 4.63021 H 3.704167 V 5.55625 H 2.778124 V 4.63021 H 0.926041 Z" />
    <path id="num_1" style="fill:#666666" d="M 0,0 V 7.40833 H 5.55625 V 0 Z m 0.926041,0.92604 h 1.852084 v 3.70417 h 0.92604 V 5.55625 H 0.926041 V 4.63021 H 1.852082 V 1.85208 H 0.926041 Z" />
    <path d="M 4.630207,5.55625 V 4.63021 H 1.852083 V 3.70416 H 4.630207 V 0.92604 H 0.926042 V 1.85208 H 3.704166 V 2.77812 H 0.926042 V 5.55625 Z M 10e-7,7.40833 V 0 h 5.556247 v 7.40833 z" id="num_2" style="fill:#666666" />
    <path d="M 4.630207,5.55625 V 0.92604 H 0.926042 V 1.85208 H 3.704166 V 2.77812 H 1.852083 V 3.70416 H 3.704166 V 4.63021 H 0.926042 V 5.55625 Z M 10e-7,7.40833 V 0 h 5.556247 v 7.40833 z" id="num_3" style="fill:#666666" />
    <path d="M 4.630207,5.55624 V 2.77812 H 1.852083 V 1.85208 H 4.630207 V 0.92604 H 0.926042 V 3.70416 H 3.704166 V 4.6302 H 0.926042 V 5.55624 Z M 10e-7,7.40833 V 0 h 5.556247 v 7.40833 z" id="num_5" style="fill:#666666" />
    <path d="M 1.852083,4.63021 V 3.70417 H 3.704166 V 4.63021 Z M 4.630207,5.55625 V 2.77813 H 1.852083 V 1.85209 H 4.630207 V 0.92604 H 0.926042 V 5.55625 Z M 10e-7,7.40833 V 0 h 5.556247 v 7.40833 z" id="num_6" style="fill:#666666" />
    <path d="M 1.852083,4.63021 V 3.70417 h 1.852083 v 0.92604 z m 0,-1.85208 V 1.85209 H 3.704166 V 2.77813 Z M 4.630207,5.55625 V 0.92604 H 0.926042 V 5.55625 Z M 10e-7,7.40833 V 0 h 5.556247 v 7.40833 z" id="num_8" style="fill:#666666" />
    <path d="M 1.852083,2.77813 V 1.85208 H 3.704166 V 2.77813 Z M 4.630207,5.55625 V 0.92604 H 0.926042 V 3.70417 H 3.704166 V 4.63021 H 0.926042 V 5.55625 Z M 10e-7,7.40833 V 0 h 5.556247 v 7.40833 z" id="num_9" style="fill:#666666" />
  </defs>
</svg>
