<?xml version="1.0" encoding="UTF-8" standalone="no"?>
<!-- Created with Inkscape (http://www.inkscape.org/) -->

<svg width="150mm" height="150mm" viewBox="0 0 150 150" version="1.1" id="svg5" xmlns="http://www.w3.org/2000/svg" xmlns:svg="http://www.w3.org/2000/svg">
  <defs id="defs2" />
  <g id="layer1" transform="translate(-15.965187,51.669437)">
    <rect style="opacity:1;fill:#ffffff;fill-rule:evenodd;stroke:none;stroke-width:4;stroke-linecap:round;stroke-linejoin:round;stroke-dasharray:none;stop-color:#000000" id="rect1159" width="150" height="150" x="15.965187" y="-51.669437" />
    <g id="g1339" transform="translate(-1.4371032,1.0724376)">
      <g id="g1333" transform="translate(1.4371023)">
        <path id="path236" style="fill:none;stroke:#000000;stroke-width:4;stroke-linecap:round;stroke-linejoin:miter;stroke-dasharray:none;stroke-opacity:1" d="M 145.43498,69.001965 90.965183,37.554043 36.495396,69.001965" />
        <path id="path497" style="fill:none;stroke:#000000;stroke-width:4;stroke-linecap:round;stroke-linejoin:round;stroke-dasharray:none;stroke-opacity:1" d="M 121.4548,75.142103 90.965184,57.539043 60.475572,75.142103" />
      </g>
      <path d="m 114.16661,-13.653953 v -7.940091 q 0,-6.464499 -4.14571,-8.994086 -3.44305,-2.037723 -11.031812,-2.037723 -7.659026,0 -11.102075,2.037723 -4.145711,2.45932 -4.145711,8.994086 0,2.810652 4.145711,2.810652 4.145712,0 4.145712,-2.810652 0,-2.529587 0.281065,-4.145712 0.281065,-1.616124 0.772929,-2.318787 1.33506,-1.89719 5.902369,-1.89719 4.567312,0 5.902372,1.967456 0.56213,0.632397 0.70266,2.248521 0.2108,1.616125 0.2108,4.145712 v 7.940091 q 0,6.2537005 -0.35133,6.8860971 -0.6324,1.405326 -4.35652,1.405326 -6.956356,0 -9.556209,1.9674563 -2.880919,2.2485215 -2.880919,9.0643525 v 3.443048 q 0.07027,2.5998531 4.145712,2.5998531 4.145711,0 4.145711,-2.7403851 l -0.07027,-8.50222198 q 0,-2.24852172 1.053995,-2.88091842 0.632396,-0.2107989 3.16198,-0.2107989 7.23743,0 9.97782,-2.1079889 3.09172,-2.3187877 3.09172,-8.9238197 z M 96.951365,22.53319 v -2.670119 q 0,-2.810652 -4.145711,-2.810652 -4.145712,0 -4.145712,2.810652 v 2.670119 q 0,2.810652 4.145712,2.810652 4.145711,0 4.145711,-2.810652 z" id="path1213" style="font-size:70.2663px;line-height:1.25;font-family:Brassiere;-inkscape-font-specification:Brassiere;letter-spacing:0px;word-spacing:0px;stroke-width:2.5095" />
    </g>
  </g>
</svg>
