<?xml version="1.0" encoding="UTF-8" standalone="no"?>
<!-- Created with Inkscape (http://www.inkscape.org/) -->

<svg width="92.878418mm" height="53.15221mm" viewBox="0 0 92.878418 53.15221" version="1.1" id="svg5" xmlns="http://www.w3.org/2000/svg" xmlns:svg="http://www.w3.org/2000/svg">
  <defs id="defs2" />
  <rect style="fill:#ffffff;fill-rule:evenodd;stroke:none;stroke-width:1.87364;stroke-linecap:round;stroke-linejoin:round;stroke-dasharray:none;stop-color:#000000" id="rect1159" width="92.878418" height="53.15221" x="0" y="0" />
  <g id="g1149" transform="translate(121.28654,-1.1302153)">
    <path id="text294" style="font-style:normal;font-variant:normal;font-weight:normal;font-stretch:normal;font-size:8.83436px;line-height:1.25;font-family:Androgyne;-inkscape-font-specification:Androgyne;letter-spacing:0px;word-spacing:0px;stroke-width:0.315513" d="m -91.12002,38.150126 c -0.530061,0 -1.036859,0.147355 -1.519803,0.441834 -0.477055,0.294478 -0.880447,0.674189 -1.210262,1.139465 -0.323927,0.465276 -0.582858,0.989447 -0.777214,1.572514 -0.188466,0.583067 -0.28267,1.163284 -0.28267,1.740462 0,0.830429 0.20578,1.434327 0.61805,1.811259 -0.147239,0.02356 -0.270914,0.05303 -0.371037,0.08837 -0.05301,0.01767 -0.07958,0.05004 -0.07958,0.09715 0,0.08245 0.02368,0.141396 0.0708,0.176734 0.106012,0.06479 0.300211,0.120832 0.58291,0.167948 0.306258,0.0589 0.568602,0.12942 0.786516,0.211874 0.170797,0.07067 0.353414,0.161983 0.54777,0.273885 0.06478,0.03534 0.220827,0.129541 0.468188,0.28267 0.253252,0.159018 0.450346,0.274007 0.591696,0.344682 0.06479,0.03534 0.171087,0.08797 0.318326,0.158646 0.14724,0.07656 0.247234,0.12682 0.30024,0.150379 0.0589,0.02945 0.147309,0.06181 0.265101,0.09715 0.12368,0.03534 0.253146,0.05902 0.388606,0.0708 0.335706,0 0.677259,-0.147355 1.024744,-0.441833 0.170797,-0.123681 0.312362,-0.268141 0.424263,-0.433049 0.09423,-0.117791 0.156071,-0.217786 0.185519,-0.30024 0.0059,-0.01767 0.003,-0.03215 -0.0088,-0.04392 -0.01178,-0.0059 -0.02677,-0.0059 -0.04444,0 -0.08834,0.02945 -0.161763,0.04972 -0.220658,0.0615 -0.07657,0.01767 -0.191553,0.03845 -0.344682,0.06201 -0.123681,0.01767 -0.247356,0.02636 -0.371037,0.02636 -0.13546,0 -0.276507,-0.01448 -0.423747,-0.04393 -0.288588,-0.05301 -0.698287,-0.179577 -1.228348,-0.379822 -0.07656,-0.02945 -0.314712,-0.132855 -0.715202,-0.309542 0.571288,-0.176687 1.089151,-0.521136 1.554427,-1.033529 0.465276,-0.518282 0.824719,-1.107185 1.07797,-1.766817 0.253252,-0.659631 0.379822,-1.313268 0.379822,-1.96112 0,-0.724417 -0.170518,-1.280954 -0.512113,-1.669666 -0.335706,-0.394601 -0.82751,-0.592212 -1.475363,-0.592212 z m 9.638172,0.0088 c -0.424049,0 -0.824545,0.07394 -1.201477,0.221175 0.02945,0.07657 0.04393,0.117617 0.04393,0.123507 0.0059,0.12957 -0.01727,0.330077 -0.07028,0.600997 -0.04712,0.27092 -0.0708,0.441438 -0.0708,0.512113 0,0.08834 0.03526,0.16228 0.105937,0.221175 0.07656,0.05301 0.197344,0.06169 0.362252,0.02635 0.259141,-0.05301 0.423868,-0.106157 0.494543,-0.159163 0.07068,-0.0589 0.203553,-0.238617 0.397909,-0.538985 0.200245,-0.306258 0.317612,-0.529927 0.35295,-0.671277 0.0059,-0.02945 0.0088,-0.06471 0.0088,-0.105937 -0.01178,-0.153128 -0.152827,-0.22996 -0.423747,-0.22996 z m 23.357747,0.389124 c -0.300368,0 -0.618241,0.0942 -0.953947,0.28267 0.07068,0.153129 0.105937,0.288385 0.105937,0.406177 0,0.0059 -0.0029,0.02088 -0.0088,0.04444 v 0.04393 c -0.282699,2.214478 -0.730039,4.122753 -1.342554,5.724715 0.300368,0.04712 0.526933,0.0708 0.680062,0.0708 0.217914,0 0.376851,-0.03526 0.476974,-0.105937 0.100122,-0.07656 0.18564,-0.200239 0.256315,-0.371036 0.40049,-0.965889 0.789404,-1.749509 1.166337,-2.350245 0.382822,-0.600735 0.671224,-0.901236 0.86558,-0.901236 0.09423,0 0.141077,0.09131 0.141077,0.273885 -0.01178,0.329815 -0.08809,0.74241 -0.229444,1.237133 -0.117791,0.429939 -0.176733,0.862801 -0.176733,1.298629 0,0.306258 0.06763,0.538614 0.203088,0.697632 0.14135,0.153129 0.336065,0.22996 0.583427,0.22996 0.318037,0 0.659591,-0.188408 1.024744,-0.56534 0.365153,-0.376932 0.54777,-0.724794 0.54777,-1.04283 0,-0.04712 -0.01789,-0.07028 -0.05323,-0.07028 -0.07067,0 -0.247501,0.146838 -0.5302,0.441316 -0.153129,0.159019 -0.297072,0.262426 -0.432532,0.309542 -0.07067,-0.12957 -0.106453,-0.256141 -0.106453,-0.379822 0,-0.347484 0.07394,-0.851387 0.221175,-1.511019 0.153129,-0.665521 0.229443,-1.086285 0.229443,-1.262972 0,-0.477055 -0.209192,-0.715718 -0.627351,-0.715718 -0.382822,0 -0.783318,0.191303 -1.201477,0.574125 -0.41227,0.376932 -0.774092,0.847952 -1.086239,1.41335 0.176687,-0.706748 0.329833,-1.389855 0.459403,-2.049487 0.13546,-0.665521 0.20888,-1.074703 0.220659,-1.227832 0.0059,-0.01767 0.0088,-0.04424 0.0088,-0.07958 0,-0.13546 -0.04105,-0.23835 -0.123507,-0.309025 -0.08245,-0.07067 -0.188756,-0.105936 -0.318327,-0.105936 z m -33.314245,0.34415 c 0.329815,0 0.57427,0.132878 0.733288,0.397908 0.164908,0.259141 0.24753,0.612277 0.24753,1.059884 0,0.353374 -0.04736,0.75387 -0.141593,1.201477 -0.09423,0.447607 -0.226594,0.889156 -0.397392,1.324984 -0.164908,0.435828 -0.385682,0.816056 -0.662492,1.139982 -0.276809,0.318036 -0.57731,0.500653 -0.901237,0.54777 -0.335705,0.04712 -0.583055,-0.08235 -0.742073,-0.388607 -0.159019,-0.306257 -0.238745,-0.727538 -0.238745,-1.263489 0,-0.53595 0.09762,-1.116168 0.291971,-1.740462 0.194356,-0.624294 0.456183,-1.160047 0.785999,-1.607654 0.335705,-0.447607 0.677259,-0.671793 1.024744,-0.671793 z m 11.228772,1.351855 c -0.27092,0.353374 -0.406694,0.624404 -0.406694,0.81287 0,0.135461 0.06763,0.244142 0.203088,0.326596 0.135461,0.08245 0.344653,0.124023 0.627352,0.124023 0.265031,0 0.582905,-0.01499 0.953947,-0.04444 -0.212024,0.27092 -0.44438,0.55984 -0.697632,0.866097 -0.253251,0.300368 -0.450345,0.532724 -0.591695,0.697632 -0.141349,0.159018 -0.347646,0.385584 -0.618567,0.680062 -0.26503,0.288589 -0.412385,0.450938 -0.441833,0.486275 -0.194356,0.212025 -0.291455,0.46227 -0.291455,0.750859 0,0.100122 0.01448,0.203013 0.04393,0.309025 0.188466,-0.02945 0.359501,-0.04392 0.51263,-0.04392 0.359264,0 0.712399,0.07342 1.059884,0.220658 0.164908,0.07067 0.3741,0.200141 0.627352,0.388607 0.253251,0.188466 0.49481,0.347403 0.724503,0.476973 0.229693,0.13546 0.447572,0.203606 0.653707,0.203606 0.288589,0 0.535939,-0.103407 0.742074,-0.309542 0.212024,-0.200246 0.318326,-0.447595 0.318326,-0.742074 0,-0.106012 -0.01789,-0.211798 -0.05323,-0.31781 -0.182577,0.176687 -0.403351,0.2651 -0.662492,0.2651 -0.424049,0 -0.84533,-0.14446 -1.263489,-0.433048 -0.565398,-0.388712 -1.048517,-0.585806 -1.449007,-0.591695 0.12957,-0.176687 0.365339,-0.441927 0.706933,-0.795301 0.347485,-0.359263 0.57405,-0.597927 0.680062,-0.715718 0.388712,-0.424049 0.886824,-0.995064 1.493449,-1.713591 0.14135,-0.164908 0.211874,-0.356211 0.211874,-0.574125 0,-0.07656 -0.0087,-0.1505 -0.02635,-0.221175 -0.530061,0.106012 -1.051337,0.159163 -1.563729,0.159163 -0.706748,0 -1.204344,-0.08841 -1.492932,-0.2651 z m 6.024955,0.01757 c -0.81865,0 -1.531229,0.362339 -2.137854,1.086756 -0.306258,0.329815 -0.536235,0.709526 -0.689364,1.139465 -0.153129,0.429938 -0.217861,0.872004 -0.194303,1.3255 0.02356,0.453497 0.176704,0.795051 0.459403,1.024744 0.2827,0.223804 0.686091,0.33538 1.210262,0.33538 0.494724,0 0.959953,-0.09999 1.395781,-0.30024 0.282699,-0.117791 0.503473,-0.276728 0.662492,-0.476973 0.170797,-0.217914 0.188686,-0.450787 0.05323,-0.698149 -0.482944,0.465276 -1.00422,0.724724 -1.563728,0.77773 -0.347485,0.04712 -0.630097,-0.08866 -0.848011,-0.406693 -0.07656,-0.106013 -0.108931,-0.276531 -0.09715,-0.512114 0.0059,-0.100122 0.102989,-0.206425 0.291455,-0.318327 0.188466,-0.111901 0.379769,-0.199798 0.574125,-0.264583 0.583067,-0.206135 1.057499,-0.48006 1.422652,-0.821655 0.365153,-0.341595 0.547253,-0.665776 0.547253,-0.972034 0.0059,-0.300368 -0.08201,-0.526933 -0.264583,-0.680062 -0.176687,-0.159018 -0.450612,-0.238745 -0.821655,-0.238745 z m 13.065869,0 c -0.806871,0 -1.510763,0.347345 -2.111499,1.042314 -0.553624,0.640467 -0.848518,1.364876 -0.891935,2.17041 -0.09278,0.01463 -0.264695,0.157105 -0.521415,0.436149 -0.188467,0.188466 -0.332926,0.291356 -0.433049,0.309025 -0.06479,-0.147239 -0.09715,-0.270914 -0.09715,-0.371037 0,-0.347484 0.103407,-0.933492 0.309542,-1.758032 0.212025,-0.824539 0.397537,-1.354501 0.556555,-1.590084 -0.27092,-0.141349 -0.533264,-0.21239 -0.786515,-0.21239 -0.229693,0 -0.415205,0.07683 -0.556555,0.22996 -0.212025,-0.164908 -0.500427,-0.24753 -0.86558,-0.24753 -0.459387,0 -0.907243,0.185513 -1.343071,0.556555 -0.429938,0.371043 -0.777283,0.839684 -1.042313,1.405083 -0.259141,0.559508 -0.394915,1.121837 -0.406694,1.687235 0,0.830429 0.31839,1.245402 0.954464,1.245402 h 0.09715 c 0.594847,-0.02945 1.224803,-0.58309 1.890324,-1.66088 -0.02945,0.206134 -0.04393,0.444798 -0.04393,0.715718 0,0.624294 0.261827,0.936377 0.785999,0.936377 0.312147,0 0.650805,-0.185512 1.015959,-0.556555 0.249028,-0.257062 0.411214,-0.501397 0.490409,-0.733805 0.06544,0.868099 0.587118,1.30793 1.577165,1.30793 0.27092,0 0.568009,-0.04684 0.891935,-0.141077 0.329816,-0.09423 0.624526,-0.238692 0.883667,-0.433048 0.26503,-0.194356 0.397392,-0.409339 0.397392,-0.644922 0,-0.111902 -0.02368,-0.211897 -0.0708,-0.30024 -0.206135,0.241472 -0.45638,0.432775 -0.750859,0.574125 -0.288589,0.14135 -0.588573,0.211873 -0.90072,0.211873 -0.223803,0 -0.391943,-0.0942 -0.503845,-0.28267 -0.111902,-0.188466 -0.167949,-0.426613 -0.167949,-0.715201 0,-0.783313 0.12078,-1.4051 0.362252,-1.864486 0.247362,-0.465276 0.559445,-0.697632 0.936377,-0.697632 0.176687,0 0.309565,0.05026 0.397909,0.150378 0.09423,0.100123 0.170547,0.279328 0.229443,0.538469 0.553619,-0.176687 0.83044,-0.426932 0.83044,-0.750859 0,-0.371042 -0.371024,-0.556555 -1.11311,-0.556555 z m -8.251176,0.01757 c -0.482944,0.0059 -1.086842,0.645049 -1.811259,1.917196 0.188466,-0.742086 0.28267,-1.228099 0.28267,-1.457792 0,-0.14135 -0.04395,-0.250031 -0.132291,-0.326595 -0.08245,-0.08245 -0.194548,-0.124024 -0.335897,-0.124024 -0.235583,0 -0.54477,0.08262 -0.927592,0.24753 0.06479,0.13546 0.09715,0.329659 0.09715,0.58291 0,0.353374 -0.08841,0.89833 -0.2651,1.634526 -0.170797,0.730306 -0.411839,1.496036 -0.723986,2.297017 0.294478,0.05301 0.523938,0.07958 0.688846,0.07958 0.212025,0 0.368066,-0.03816 0.468189,-0.114722 0.106012,-0.07656 0.19153,-0.200239 0.256315,-0.371036 0.13546,-0.335706 0.23835,-0.589363 0.309025,-0.760161 0.07067,-0.176687 0.164879,-0.400356 0.28267,-0.671277 0.123681,-0.27092 0.229983,-0.473805 0.318327,-0.609265 0.08834,-0.141349 0.185443,-0.288704 0.291455,-0.441833 0.111902,-0.153129 0.223478,-0.262327 0.33538,-0.327112 0.111902,-0.06479 0.223995,-0.09715 0.335897,-0.09715 0.12957,0 0.241664,0.07394 0.335897,0.221175 0.40638,-0.459386 0.609265,-0.877771 0.609265,-1.254703 0,-0.2827 -0.123675,-0.424264 -0.371037,-0.424264 z m -18.057296,0.0088 c -0.259141,0 -0.54806,0.06184 -0.866097,0.185519 0.0589,0.111901 0.08837,0.262152 0.08837,0.450618 0,0.217914 -0.105786,0.771556 -0.31781,1.660881 -0.212024,0.889324 -0.318327,1.448757 -0.318327,1.67845 0,0.606626 0.256553,0.910022 0.768945,0.910022 0.677301,0 1.363304,-0.568119 2.058273,-1.704805 -0.05301,0.288588 -0.07958,0.515154 -0.07958,0.680061 0,0.630184 0.261827,0.945162 0.785999,0.945162 0.318036,0 0.660107,-0.188408 1.02526,-0.56534 0.365153,-0.376932 0.547253,-0.724277 0.547253,-1.042313 0,-0.05301 -0.01737,-0.07958 -0.05271,-0.07958 -0.02356,0 -0.168018,0.123675 -0.433048,0.371037 -0.259141,0.241472 -0.435967,0.370938 -0.5302,0.388606 -0.06479,-0.117791 -0.09715,-0.244361 -0.09715,-0.379821 0,-0.117792 0.0092,-0.244362 0.02687,-0.379822 0.01767,-0.14135 0.04714,-0.303182 0.08837,-0.485759 0.04712,-0.182576 0.08527,-0.332827 0.114721,-0.450618 0.02945,-0.117791 0.0797,-0.297513 0.150379,-0.538985 0.07067,-0.247362 0.117518,-0.414985 0.141076,-0.503329 0.07656,-0.276809 0.114722,-0.497584 0.114722,-0.662492 0,-0.294478 -0.179722,-0.453932 -0.538985,-0.47749 -0.27092,0 -0.524061,0.04157 -0.759644,0.124024 0.04123,0.08245 0.06201,0.182448 0.06201,0.30024 0,0.530061 -0.226565,1.207378 -0.680062,2.031917 -0.235583,0.429938 -0.477142,0.786486 -0.724504,1.069185 -0.247361,0.27681 -0.432874,0.414962 -0.556555,0.414962 -0.111901,0 -0.167948,-0.07631 -0.167948,-0.229443 0,-0.100123 0.01737,-0.247478 0.05271,-0.441834 0.03534,-0.200245 0.07691,-0.394444 0.124023,-0.58291 0.04712,-0.188466 0.11185,-0.453705 0.194304,-0.7953 0.08245,-0.341595 0.150082,-0.629998 0.203088,-0.86558 0.0589,-0.265031 0.08837,-0.444753 0.08837,-0.538986 0,-0.323926 -0.170519,-0.486275 -0.512114,-0.486275 z m 5.017782,0.132809 c -0.253252,0 -0.547962,0.06184 -0.883667,0.185518 0.08834,0.13546 0.132808,0.282815 0.132808,0.441833 0,0.170798 -0.01499,0.329735 -0.04444,0.476974 -0.13546,0.700858 -0.23256,1.160296 -0.291455,1.37821 -0.153129,0.571288 -0.212071,1.045203 -0.176734,1.422136 0.03534,0.54184 0.297681,0.81287 0.786515,0.81287 0.229694,0 0.491521,-0.114989 0.785999,-0.344682 0.300368,-0.235582 0.512456,-0.494514 0.636137,-0.777213 0.09423,-0.223804 0.141593,-0.382741 0.141593,-0.476974 0,-0.182576 -0.194715,-0.0618 -0.583427,0.362252 -0.200245,0.188466 -0.344188,0.291356 -0.432531,0.309025 -0.06479,-0.117791 -0.09715,-0.244362 -0.09715,-0.379822 0,-0.323926 0.04395,-0.680474 0.132292,-1.069185 0.01178,-0.04123 0.126767,-0.474089 0.344681,-1.298629 0.02945,-0.106012 0.06181,-0.253367 0.09715,-0.441833 0.03534,-0.194356 7.6e-5,-0.347502 -0.105937,-0.459404 -0.08834,-0.09423 -0.235698,-0.141076 -0.441833,-0.141076 z m 7.782987,0.433048 c 0.153129,0 0.258915,0.05553 0.31781,0.167432 0.0589,0.111902 0.0652,0.247675 0.01809,0.406693 -0.05301,0.176687 -0.138524,0.33852 -0.256315,0.485759 -0.111902,0.141349 -0.297414,0.282914 -0.556555,0.424263 -0.01767,0.0059 -0.05924,0.02616 -0.124024,0.0615 -0.05889,0.03534 -0.09705,0.05902 -0.114721,0.0708 -0.01178,0.0059 -0.04415,0.02378 -0.09715,0.05323 -0.05301,0.02945 -0.08827,0.05261 -0.105937,0.07028 -0.01767,0.01178 -0.04714,0.03546 -0.08837,0.0708 -0.03534,0.02945 -0.06481,0.05892 -0.08837,0.08837 -0.01767,0.02356 -0.03845,0.05303 -0.06201,0.08837 -0.02356,0.03534 -0.04383,0.07349 -0.0615,0.114721 0.03534,-0.164908 0.06481,-0.297269 0.08837,-0.397391 0.265031,-1.136687 0.641846,-1.704806 1.13068,-1.704806 z m 8.021733,0.07906 c 0.153129,0 0.297072,0.04447 0.432532,0.132808 0.13546,0.08245 0.226768,0.209025 0.273885,0.379822 -0.241472,0.671411 -0.585922,1.330838 -1.033529,1.978691 -0.365153,0.54184 -0.629876,0.81287 -0.794783,0.81287 -0.176687,0 -0.274304,-0.153146 -0.291972,-0.459403 0,-0.382822 0.06815,-0.7949 0.203605,-1.236617 0.13546,-0.441718 0.314665,-0.818534 0.538468,-1.130681 0.223804,-0.318036 0.44799,-0.47749 0.671794,-0.47749 z" />
    <path style="fill:none;stroke:#000000;stroke-width:0.529167;stroke-linecap:round;stroke-linejoin:miter;stroke-dasharray:none;stroke-opacity:1" d="m -112.64908,34.904613 h 75.603485" id="path454" />
    <g id="g1129" transform="translate(4.0918431)">
      <path style="fill:#000000;stroke:none;stroke-width:0.264583px;stroke-linecap:round;stroke-linejoin:round;stroke-opacity:1" d="m -57.235917,34.836761 c -0.08134,-7.22355 -8.244761,-14.736392 -18.559032,-22.341089 3.91906,6.147259 5.895103,14.831133 -7.271506,22.341282 z" id="path456" />
      <path id="path556" style="fill:none;stroke:#000000;stroke-width:0.529167;stroke-linecap:butt;stroke-linejoin:miter;stroke-dasharray:none;stroke-opacity:1" d="m -57.235917,34.836761 c -0.08134,-7.22355 -8.224978,-14.747397 -18.559182,-22.315673 -2.649378,11.637762 -13.671418,18.304854 -25.023301,22.339683" />
    </g>
    <path id="text1125" style="font-style:normal;font-variant:normal;font-weight:normal;font-stretch:normal;font-size:18.6251px;line-height:1.25;font-family:Androgyne;-inkscape-font-specification:Androgyne;letter-spacing:0px;word-spacing:0px;stroke-width:0.665183" d="m -85.057857,8.4366943 c -1.018171,0 -1.955478,0.2113846 -2.812232,0.6335531 -0.856753,0.4221685 -1.285193,0.9805306 -1.285193,1.6758666 0,0.422169 0.273253,0.832047 0.819589,1.229382 0.161417,-0.03725 0.316604,-0.155316 0.465604,-0.353983 0.161418,-0.434585 0.422297,-0.794453 0.782381,-1.080038 0.372502,-0.285584 0.788568,-0.428397 1.247986,-0.428397 0.509086,0 0.918448,0.142813 1.228866,0.428397 0.310418,0.273168 0.465605,0.67686 0.465605,1.210779 0,0.471836 -0.111363,0.937396 -0.334864,1.396814 -0.223501,0.447002 -0.527687,0.863068 -0.912606,1.247986 -0.372501,0.384918 -0.732886,0.720039 -1.080554,1.005623 -0.347668,0.273168 -0.719909,0.552608 -1.117244,0.838192 -0.397335,0.285585 -0.652027,0.477892 -0.763778,0.577226 -0.509085,0.447002 -0.763778,1.00588 -0.763778,1.676383 0,0.285585 0.09951,0.577398 0.298173,0.875399 0.211085,0.285585 0.484337,0.428398 0.819589,0.428398 0.533919,0 1.092797,-0.199011 1.676383,-0.596346 -0.186251,-0.372502 -0.279569,-0.719996 -0.279569,-1.042831 0,-0.397335 0.204681,-0.801027 0.614432,-1.210779 0.409752,-0.409751 0.987191,-0.881498 1.732194,-1.415417 0.745004,-0.546336 1.279135,-0.968588 1.60197,-1.266589 0.79467,-0.831921 1.191658,-1.74448 1.191658,-2.737818 0,-1.055421 -0.31656,-1.8313542 -0.949812,-2.328023 -0.633253,-0.5090855 -1.514879,-0.7637777 -2.6448,-0.7637777 z M -87.98171,20.841105 c -0.397335,0 -0.862895,0.124253 -1.396814,0.372587 0.01242,0.06208 0.0186,0.142512 0.0186,0.241846 0,0.0745 -0.03093,0.23639 -0.09302,0.484725 -0.04967,0.235918 -0.07493,0.452972 -0.07493,0.65164 0,0.533919 0.310374,0.800984 0.93121,0.800984 0.558752,0 1.086697,-0.16756 1.583366,-0.502811 0.149,-0.596003 0.223758,-0.937827 0.223758,-1.024744 0,-0.68292 -0.397505,-1.024227 -1.192175,-1.024227 z" />
  </g>
</svg>
